<?xml version="1.0" standalone="no"?>
<!DOCTYPE svg PUBLIC "-//W3C//DTD SVG 20010904//EN"
 "http://www.w3.org/TR/2001/REC-SVG-20010904/DTD/svg10.dtd">
<svg version="1.0" xmlns="http://www.w3.org/2000/svg"
 width="300.000000pt" height="300.000000pt" viewBox="0 0 300.000000 300.000000"
 preserveAspectRatio="xMidYMid meet">

<g transform="translate(0.000000,300.000000) scale(0.100000,-0.100000)"
fill="#000000" stroke="none">
<path d="M883 1768 c7 -21 -22 -60 -30 -40 -4 10 -11 5 -24 -15 -40 -59 -14
-106 55 -101 33 2 43 8 53 29 16 34 1 88 -34 120 -18 17 -24 19 -20 7z"/>
<path d="M1538 1635 c2 -47 0 -85 -5 -85 -4 1 -19 7 -33 15 -78 45 -191 -13
-221 -114 -27 -89 25 -194 108 -222 47 -15 128 -6 161 18 37 27 72 81 72 110
0 32 16 21 23 -15 3 -16 18 -44 34 -62 67 -81 198 -81 266 -1 15 18 27 39 27
47 0 22 -77 18 -107 -6 -31 -24 -80 -26 -105 -3 -17 15 -12 19 102 66 109 45
120 51 114 71 -22 72 -93 126 -168 126 -74 0 -149 -60 -166 -134 -5 -18 -8 31
-9 122 l-1 152 -47 0 -48 0 3 -85z m318 -149 c18 -14 18 -15 -6 -24 -14 -6
-47 -20 -73 -31 -58 -25 -57 -25 -57 -5 0 8 13 29 29 45 33 32 75 38 107 15z
m-351 -21 c46 -45 27 -133 -33 -156 -52 -20 -112 31 -112 95 0 13 12 38 26 55
33 40 83 43 119 6z"/>
<path d="M660 1490 c0 -183 6 -212 52 -244 12 -9 39 -16 60 -16 38 0 38 0 38
40 0 32 -4 40 -18 40 -33 0 -42 21 -42 102 l0 78 30 0 c28 0 30 2 30 40 0 38
-2 40 -29 40 -28 0 -30 3 -33 43 -3 42 -3 42 -45 45 l-43 3 0 -171z"/>
<path d="M1030 1562 c-60 -32 -80 -86 -80 -219 l0 -113 45 0 45 0 0 110 c0
123 12 150 69 150 50 0 61 -29 61 -152 l0 -108 45 0 45 0 0 118 c0 134 -12
172 -69 209 -42 29 -112 30 -161 5z"/>
<path d="M830 1400 l0 -170 45 0 45 0 0 170 0 170 -45 0 -45 0 0 -170z"/>
<path d="M1960 1552 c0 -5 29 -78 64 -163 l65 -154 54 -3 54 -3 38 88 c21 48
53 123 71 166 l34 78 -57 -3 -56 -3 -36 -97 c-20 -53 -40 -100 -43 -103 -3 -4
-9 4 -13 17 -4 13 -21 60 -37 106 l-30 82 -54 0 c-30 0 -54 -4 -54 -8z"/>
</g>
</svg>
