<?xml version="1.0" standalone="no"?>
<!DOCTYPE svg PUBLIC "-//W3C//DTD SVG 20010904//EN"
 "http://www.w3.org/TR/2001/REC-SVG-20010904/DTD/svg10.dtd">
<svg version="1.0" xmlns="http://www.w3.org/2000/svg"
 width="300.000000pt" height="300.000000pt" viewBox="0 0 300.000000 300.000000"
 preserveAspectRatio="xMidYMid meet">
<metadata>
Created by potrace 1.15, written by Peter Selinger 2001-2017
</metadata>
<g transform="translate(0.000000,300.000000) scale(0.100000,-0.100000)"
fill="#000000" stroke="none">
<path d="M873 1763 c2 -22 -2 -27 -15 -25 -19 3 -58 -50 -58 -79 0 -28 39 -59
73 -59 80 0 103 71 47 148 -35 49 -50 53 -47 15z"/>
<path d="M1530 1645 l0 -85 -40 16 c-72 29 -149 -3 -199 -81 l-29 -45 -6 33
c-7 37 -33 66 -83 91 -67 34 -154 9 -200 -56 -27 -39 -28 -48 -32 -170 l-3
-128 56 0 56 0 0 120 c0 108 2 120 19 130 26 14 64 13 79 -2 8 -8 12 -52 12
-130 l0 -118 55 0 55 0 0 58 c1 47 3 54 12 37 51 -93 159 -130 248 -85 38 20
90 76 90 98 0 7 5 12 10 12 6 0 10 -6 10 -14 0 -23 49 -75 91 -96 45 -24 103
-26 151 -5 42 17 98 78 98 105 0 17 -7 20 -48 20 -36 0 -54 -5 -67 -20 -19
-21 -78 -27 -105 -10 -12 7 -10 11 10 19 111 44 194 81 202 89 32 32 -40 129
-109 150 -56 17 -76 15 -127 -9 -49 -23 -67 -40 -90 -84 -15 -29 -16 -23 -16
108 l0 137 -50 0 -50 0 0 -85z m-27 -187 c39 -45 28 -108 -24 -137 -49 -28
-109 15 -109 78 0 77 85 114 133 59z"/>
<path d="M650 1500 c0 -193 8 -227 62 -260 18 -11 50 -20 71 -20 l37 0 0 50
c0 46 -2 50 -23 50 -37 0 -47 19 -47 92 l0 68 30 0 c29 0 30 1 30 50 0 49 -1
50 -30 50 -29 0 -30 2 -30 45 l0 45 -50 0 -50 0 0 -170z"/>
<path d="M830 1400 l0 -180 50 0 50 0 0 180 0 180 -50 0 -50 0 0 -180z"/>
<path d="M1950 1554 c0 -3 6 -20 14 -37 8 -18 33 -77 56 -132 23 -55 47 -112
53 -127 11 -26 16 -28 72 -28 l60 0 68 158 c37 86 67 160 67 165 0 4 -27 7
-59 7 l-60 0 -21 -57 c-11 -32 -28 -77 -37 -101 l-16 -43 -30 83 c-16 46 -31
91 -34 101 -4 14 -17 17 -69 17 -35 0 -64 -3 -64 -6z"/>
</g>
</svg>
